<svg width="178" height="224" viewBox="0 0 178 224" fill="none" xmlns="http://www.w3.org/2000/svg">
<path d="M51.6826 56.7994C38.3194 56.7994 27.4445 67.6742 27.4445 81.0374C27.4445 94.4007 38.3194 105.28 51.6826 105.28C65.0458 105.28 75.9252 94.4052 75.9252 81.0374C75.9252 67.6697 65.0503 56.7994 51.6826 56.7994ZM51.6826 98.0452C42.3071 98.0452 34.6794 90.4174 34.6794 81.0374C34.6794 71.6574 42.3071 64.0342 51.6826 64.0342C61.0581 64.0342 68.6903 71.6619 68.6903 81.0374C68.6903 90.4129 61.0626 98.0452 51.6826 98.0452Z" fill="#7828C8"/>
<path d="M89.4104 185.125H55.2052C50.7613 185.125 47.1484 188.734 47.1484 193.168V200.006C47.1484 204.45 50.7613 208.063 55.2052 208.063H89.4104C93.8542 208.063 97.4717 204.45 97.4717 200.006V193.168C97.4717 188.734 93.8542 185.125 89.4104 185.125ZM90.2368 200.006C90.2368 200.453 89.8575 200.832 89.4104 200.832H55.2052C54.7581 200.832 54.3788 200.453 54.3788 200.006V193.168C54.3788 192.73 54.7581 192.356 55.2052 192.356H89.4104C89.8575 192.356 90.2368 192.73 90.2368 193.168V200.006Z" fill="#7828C8"/>
<path d="M175.235 57.0342C174.715 56.8219 174.165 56.7361 173.623 56.7723C173.559 56.7677 173.496 56.7632 173.428 56.7632H154.361V22.9465C154.361 10.2923 144.06 0 131.401 0H96.3516C83.6974 0 73.4007 10.2923 73.4007 22.9465V42.4923L69.7426 44.8C68.0716 43.9645 66.3329 43.2419 64.5445 42.6458L63.0452 36.0297C62.1058 31.911 59.2742 29.3548 55.6523 29.3548H47.7174C44.1 29.3548 41.2639 31.911 40.3245 36.0387L38.8297 42.6458C37.0368 43.2419 35.3026 43.9645 33.6271 44.8045L27.8826 41.1781C24.3013 38.9426 20.4897 39.1413 17.9426 41.6884L12.3245 47.3064C9.80452 49.849 9.61484 53.7555 11.8323 57.2465L15.4406 62.991C14.6052 64.671 13.8871 66.4097 13.291 68.1845L6.67484 69.6929C2.55613 70.6323 0 73.4639 0 77.0813V85.0071C0 88.6245 2.55613 91.4606 6.67935 92.4L13.291 93.9084C13.8871 95.6832 14.6052 97.4174 15.4406 99.1019L11.8413 104.828C10.8658 106.364 10.3555 107.972 10.2968 109.507C10.2606 109.71 10.2381 109.923 10.2381 110.139V220.387C10.2381 222.383 11.8594 224 13.8555 224H130.76C131.83 224 132.783 223.535 133.447 222.799C133.488 222.763 133.533 222.726 133.574 222.686L176.409 179.85C177.086 179.173 177.466 178.256 177.466 177.294V60.3761C177.466 58.9129 176.585 57.5942 175.235 57.0342ZM154.361 63.9935H165.123L154.361 74.76V63.9935ZM8.2871 85.3503C7.69548 85.2148 7.36581 85.0161 7.23032 84.9077V77.1806C7.36581 77.0723 7.69548 76.8781 8.28258 76.7426L16.94 74.7735C18.2361 74.4755 19.2658 73.491 19.6226 72.2084C20.3497 69.571 21.4065 67.0148 22.7658 64.6168C23.4206 63.4606 23.3845 62.0381 22.68 60.909L17.9471 53.3806C17.6219 52.8748 17.5361 52.5045 17.5181 52.3419L22.9826 46.8774C23.1587 46.8955 23.5335 46.9903 24.0394 47.3064L31.5542 52.0439C32.6832 52.7574 34.1194 52.789 35.28 52.1206C37.6374 50.7703 40.1845 49.7135 42.8536 48.9774C44.1406 48.6206 45.1252 47.5865 45.4187 46.2858L47.3742 37.6419C47.5097 37.0503 47.7084 36.7206 47.8168 36.5852H55.5574C55.6613 36.7206 55.86 37.0503 55.991 37.6329L57.951 46.2858C58.2445 47.5865 59.229 48.6206 60.5161 48.9774C63.1852 49.7135 65.7368 50.7703 68.0897 52.1206C69.2503 52.789 70.6864 52.7574 71.8155 52.0439L79.3168 47.3155C79.8361 46.9903 80.211 46.8955 80.3871 46.8774L85.8561 52.3465C85.8335 52.509 85.7432 52.8839 85.4135 53.3942L80.6897 60.909C79.9852 62.0381 79.949 63.4606 80.6039 64.6168C81.9858 67.0555 83.0426 69.6071 83.7471 72.1948C84.0948 73.4819 85.129 74.4755 86.4342 74.7735L95.0826 76.7426C95.6742 76.8781 96.0039 77.0723 96.1394 77.1806V84.9077C96.0039 85.0161 95.6742 85.2148 95.0871 85.3458L86.4342 87.3194C85.1335 87.6129 84.1039 88.6019 83.7471 89.8845C83.02 92.5174 81.9632 95.0735 80.6039 97.4761C79.949 98.6323 79.9852 100.055 80.6897 101.179L85.4226 108.712C85.7342 109.2 85.8335 109.561 85.8561 109.733L80.3781 115.211C80.2065 115.188 79.8361 115.089 79.3303 114.773L71.829 110.049C70.7 109.335 69.2684 109.304 68.1077 109.968C65.7232 111.327 63.1716 112.388 60.5206 113.115C59.2336 113.468 58.2445 114.502 57.951 115.803L55.9955 124.437C55.86 125.025 55.6613 125.359 55.5574 125.494H47.8168C47.7084 125.359 47.5097 125.029 47.3787 124.442L45.4187 115.803C45.1252 114.502 44.1361 113.472 42.8536 113.115C40.1845 112.379 37.6329 111.323 35.28 109.972C34.1194 109.304 32.6877 109.335 31.5542 110.045L24.0348 114.773C23.5335 115.089 23.1632 115.188 22.9916 115.211L17.5181 109.737C17.5406 109.575 17.631 109.205 17.9561 108.694L22.68 101.179C23.3845 100.055 23.4206 98.6323 22.7658 97.4761C21.4065 95.0735 20.3497 92.5219 19.6226 89.8845C19.2658 88.6019 18.2361 87.6129 16.94 87.3194L8.2871 85.3503ZM87.929 62.9864L90.2368 59.3148V68.2206L90.0877 68.1845C89.4961 66.4232 88.7736 64.6845 87.929 62.9864ZM90.2368 93.8723V99.9329L88.4529 99.9374L87.929 99.1019C88.7645 97.4174 89.4871 95.6832 90.0787 93.9084L90.2368 93.8723ZM127.143 216.77H17.4729V119.917L17.9336 120.377C20.4536 122.92 24.3645 123.119 27.8916 120.892L33.6271 117.288C35.2981 118.124 37.0368 118.846 38.8297 119.447L40.3245 126.05C41.2639 130.168 44.1 132.725 47.7174 132.725H55.6523C59.2742 132.725 62.1058 130.168 63.0452 126.041L64.54 119.447C66.3284 118.851 68.0671 118.128 69.7516 117.288L75.4735 120.888C79.0052 123.119 82.9161 122.92 85.4271 120.386L91.0226 114.791C93.0187 112.813 93.5652 109.981 92.6394 107.163L127.143 107.091V216.77ZM130.295 98.831L129.274 99.8561L117.492 99.8787V38.7439C117.492 36.7432 115.87 35.1265 113.874 35.1265C111.878 35.1265 110.257 36.7432 110.257 38.7439V99.8923L97.4716 99.9193V92.1923C101.13 91.0903 103.37 88.3942 103.37 85.0071V77.0813C103.37 73.6987 101.134 71.0026 97.4716 69.8961V24.0665H130.295V98.831ZM131.401 16.8316H96.3516C93.0368 16.8316 90.2368 19.7129 90.2368 23.1226V46.5026L85.4271 41.6884C84.0994 40.3652 82.4329 39.6832 80.6355 39.6426V22.9465C80.6355 14.28 87.6852 7.23032 96.3516 7.23032H131.401C140.072 7.23032 147.126 14.28 147.126 22.9465V81.9948L137.525 91.5961V23.1226C137.525 19.7129 134.721 16.8316 131.401 16.8316ZM170.235 175.795L134.377 211.653V104.977L136.455 102.9C136.464 102.891 136.468 102.886 136.477 102.877L153.237 86.1135C153.277 86.0729 153.318 86.0323 153.359 85.9916L170.235 69.1103V175.795Z" fill="url(#paint0_linear_49_7765)"/>
<defs>
<linearGradient id="paint0_linear_49_7765" x1="0" y1="112" x2="177.466" y2="112" gradientUnits="userSpaceOnUse">
<stop offset="0.6" stop-color="#7828C8"/>
<stop offset="1" stop-color="#006FEE"/>
</linearGradient>
</defs>
</svg>
