<svg width="299" height="112" viewBox="0 0 299 112" fill="none" xmlns="http://www.w3.org/2000/svg">
<path d="M25.8413 28.3997C19.1596 28.3997 13.7222 33.8371 13.7222 40.5187C13.7222 47.2003 19.1596 52.64 25.8413 52.64C32.5229 52.64 37.9625 47.2026 37.9625 40.5187C37.9625 33.8348 32.5251 28.3997 25.8413 28.3997ZM25.8413 49.0226C21.1535 49.0226 17.3396 45.2087 17.3396 40.5187C17.3396 35.8287 21.1535 32.0171 25.8413 32.0171C30.529 32.0171 34.3451 35.831 34.3451 40.5187C34.3451 45.2065 30.5313 49.0226 25.8413 49.0226Z" fill="#7828C8"/>
<path d="M44.7052 92.5626H27.6026C25.3807 92.5626 23.5742 94.3668 23.5742 96.5842V100.003C23.5742 102.225 25.3807 104.031 27.6026 104.031H44.7052C46.9271 104.031 48.7358 102.225 48.7358 100.003V96.5842C48.7358 94.3668 46.9271 92.5626 44.7052 92.5626ZM45.1184 100.003C45.1184 100.226 44.9287 100.416 44.7052 100.416H27.6026C27.3791 100.416 27.1894 100.226 27.1894 100.003V96.5842C27.1894 96.3652 27.3791 96.1778 27.6026 96.1778H44.7052C44.9287 96.1778 45.1184 96.3652 45.1184 96.5842V100.003Z" fill="#7828C8"/>
<path d="M87.6174 28.5171C87.3577 28.411 87.0823 28.3681 86.8113 28.3861C86.7797 28.3839 86.7481 28.3816 86.7142 28.3816H77.1806V11.4732C77.1806 5.14613 72.03 0 65.7006 0H48.1758C41.8487 0 36.7003 5.14613 36.7003 11.4732V21.2461L34.8713 22.4C34.0358 21.9823 33.1665 21.621 32.2723 21.3229L31.5226 18.0148C31.0529 15.9555 29.6371 14.6774 27.8261 14.6774H23.8587C22.05 14.6774 20.6319 15.9555 20.1623 18.0194L19.4148 21.3229C18.5184 21.621 17.6513 21.9823 16.8135 22.4023L13.9413 20.589C12.1506 19.4713 10.2448 19.5706 8.97129 20.8442L6.16226 23.6532C4.90226 24.9245 4.80742 26.8777 5.91613 28.6232L7.72032 31.4955C7.30258 32.3355 6.94355 33.2048 6.64548 34.0923L3.33742 34.8465C1.27807 35.3161 0 36.7319 0 38.5406V42.5035C0 44.3123 1.27806 45.7303 3.33968 46.2L6.64548 46.9542C6.94355 47.8416 7.30258 48.7087 7.72032 49.551L5.92064 52.4142C5.4329 53.1819 5.17774 53.9858 5.14839 54.7535C5.13032 54.8552 5.11903 54.9613 5.11903 55.0697V110.194C5.11903 111.192 5.92968 112 6.92774 112H65.38C65.9152 112 66.3916 111.767 66.7235 111.399C66.7439 111.381 66.7665 111.363 66.7868 111.343L88.2045 89.9252C88.5432 89.5864 88.7329 89.1281 88.7329 88.6471V30.1881C88.7329 29.4565 88.2926 28.7971 87.6174 28.5171ZM77.1806 31.9968H82.5616L77.1806 37.38V31.9968ZM4.14355 42.6752C3.84774 42.6074 3.6829 42.5081 3.61516 42.4539V38.5903C3.6829 38.5361 3.84774 38.439 4.14129 38.3713L8.47 37.3868C9.11806 37.2377 9.6329 36.7455 9.81129 36.1042C10.1748 34.7855 10.7032 33.5074 11.3829 32.3084C11.7103 31.7303 11.6923 31.019 11.34 30.4545L8.97355 26.6903C8.81097 26.4374 8.76806 26.2523 8.75903 26.171L11.4913 23.4387C11.5794 23.4477 11.7668 23.4952 12.0197 23.6532L15.7771 26.0219C16.3416 26.3787 17.0597 26.3945 17.64 26.0603C18.8187 25.3852 20.0923 24.8568 21.4268 24.4887C22.0703 24.3103 22.5626 23.7932 22.7094 23.1429L23.6871 18.821C23.7548 18.5252 23.8542 18.3603 23.9084 18.2926H27.7787C27.8306 18.3603 27.93 18.5252 27.9955 18.8165L28.9755 23.1429C29.1223 23.7932 29.6145 24.3103 30.2581 24.4887C31.5926 24.8568 32.8684 25.3852 34.0448 26.0603C34.6252 26.3945 35.3432 26.3787 35.9077 26.0219L39.6584 23.6577C39.9181 23.4952 40.1055 23.4477 40.1935 23.4387L42.9281 26.1732C42.9168 26.2545 42.8716 26.4419 42.7068 26.6971L40.3448 30.4545C39.9926 31.019 39.9745 31.7303 40.3019 32.3084C40.9929 33.5277 41.5213 34.8035 41.8735 36.0974C42.0474 36.741 42.5645 37.2377 43.2171 37.3868L47.5413 38.3713C47.8371 38.439 48.0019 38.5361 48.0697 38.5903V42.4539C48.0019 42.5081 47.8371 42.6074 47.5435 42.6729L43.2171 43.6597C42.5668 43.8065 42.0519 44.301 41.8735 44.9423C41.51 46.2587 40.9816 47.5368 40.3019 48.7381C39.9745 49.3161 39.9926 50.0274 40.3448 50.5897L42.7113 54.3561C42.8671 54.6 42.9168 54.7806 42.9281 54.8664L40.189 57.6055C40.1032 57.5942 39.9181 57.5445 39.6652 57.3865L35.9145 55.0245C35.35 54.6677 34.6342 54.6519 34.0539 54.9839C32.8616 55.6635 31.5858 56.1942 30.2603 56.5577C29.6168 56.7339 29.1223 57.251 28.9755 57.9013L27.9977 62.2187C27.93 62.5123 27.8306 62.6794 27.7787 62.7471H23.9084C23.8542 62.6794 23.7548 62.5145 23.6894 62.221L22.7094 57.9013C22.5626 57.251 22.0681 56.7361 21.4268 56.5577C20.0923 56.1897 18.8164 55.6613 17.64 54.9861C17.0597 54.6519 16.3439 54.6677 15.7771 55.0223L12.0174 57.3865C11.7668 57.5445 11.5816 57.5942 11.4958 57.6055L8.75903 54.8687C8.77032 54.7874 8.81548 54.6023 8.97806 54.3471L11.34 50.5897C11.6923 50.0274 11.7103 49.3161 11.3829 48.7381C10.7032 47.5368 10.1748 46.261 9.81129 44.9423C9.6329 44.301 9.11806 43.8065 8.47 43.6597L4.14355 42.6752ZM43.9645 31.4932L45.1184 29.6574V34.1103L45.0439 34.0923C44.7481 33.2116 44.3868 32.3423 43.9645 31.4932ZM45.1184 46.9361V49.9665L44.2264 49.9687L43.9645 49.551C44.3823 48.7087 44.7435 47.8416 45.0394 46.9542L45.1184 46.9361ZM63.5713 108.385H8.73645V59.9584L8.96677 60.1887C10.2268 61.46 12.1823 61.5594 13.9458 60.4461L16.8135 58.6442C17.649 59.0619 18.5184 59.4232 19.4148 59.7235L20.1623 63.0248C20.6319 65.0842 22.05 66.3623 23.8587 66.3623H27.8261C29.6371 66.3623 31.0529 65.0842 31.5226 63.0203L32.27 59.7235C33.1642 59.4255 34.0335 59.0642 34.8758 58.6442L37.7368 60.4439C39.5026 61.5594 41.4581 61.46 42.7135 60.1932L45.5113 57.3955C46.5094 56.4064 46.7826 54.9906 46.3197 53.5816L63.5713 53.5455V108.385ZM65.1474 49.4155L64.6371 49.9281L58.7458 49.9394V19.3719C58.7458 18.3716 57.9352 17.5632 56.9371 17.5632C55.939 17.5632 55.1284 18.3716 55.1284 19.3719V49.9461L48.7358 49.9597V46.0961C50.5648 45.5452 51.6848 44.1971 51.6848 42.5035V38.5406C51.6848 36.8494 50.5671 35.5013 48.7358 34.9481V12.0332H65.1474V49.4155ZM65.7006 8.41581H48.1758C46.5184 8.41581 45.1184 9.85645 45.1184 11.5613V23.2513L42.7135 20.8442C42.0497 20.1826 41.2165 19.8416 40.3177 19.8213V11.4732C40.3177 7.14 43.8426 3.61516 48.1758 3.61516H65.7006C70.0361 3.61516 73.5632 7.14 73.5632 11.4732V40.9974L68.7626 45.7981V11.5613C68.7626 9.85645 67.3603 8.41581 65.7006 8.41581ZM85.1177 87.8974L67.1887 105.826V52.4887L68.2274 51.45C68.2319 51.4455 68.2342 51.4432 68.2387 51.4387L76.6184 43.0568C76.6387 43.0364 76.659 43.0161 76.6794 42.9958L85.1177 34.5552V87.8974Z" fill="url(#paint0_linear_50_7787)"/>
<path d="M113.436 14.836V47H107.804V14.836H113.436ZM125.142 47H119.774V25.264H124.746L125.186 28.08C125.86 26.9947 126.814 26.144 128.046 25.528C129.307 24.912 130.671 24.604 132.138 24.604C134.866 24.604 136.919 25.4107 138.298 27.024C139.706 28.6373 140.41 30.8373 140.41 33.624V47H135.042V34.9C135.042 33.0813 134.631 31.732 133.81 30.852C132.988 29.9427 131.874 29.488 130.466 29.488C128.794 29.488 127.488 30.016 126.55 31.072C125.611 32.128 125.142 33.536 125.142 35.296V47ZM151.414 47L142.79 25.264H148.51L152.294 35.252C152.764 36.5427 153.16 37.7307 153.482 38.816C153.834 39.872 154.084 40.6933 154.23 41.28C154.377 40.6053 154.626 39.74 154.978 38.684C155.36 37.5987 155.785 36.4547 156.254 35.252L160.214 25.264H165.758L156.694 47H151.414ZM177.537 47.572C175.395 47.572 173.489 47.088 171.817 46.12C170.174 45.1227 168.883 43.7733 167.945 42.072C167.006 40.3413 166.537 38.3613 166.537 36.132C166.537 33.8733 166.991 31.8787 167.901 30.148C168.81 28.4173 170.086 27.068 171.729 26.1C173.371 25.1027 175.249 24.604 177.361 24.604C179.561 24.604 181.453 25.0733 183.037 26.012C184.621 26.9213 185.838 28.1973 186.689 29.84C187.569 31.4827 188.009 33.448 188.009 35.736V37.364L169.353 37.408L169.441 33.976H182.685C182.685 32.48 182.201 31.2773 181.233 30.368C180.294 29.4587 179.018 29.004 177.405 29.004C176.143 29.004 175.073 29.268 174.193 29.796C173.342 30.324 172.697 31.116 172.257 32.172C171.817 33.228 171.597 34.5187 171.597 36.044C171.597 38.3907 172.095 40.1653 173.093 41.368C174.119 42.5707 175.63 43.172 177.625 43.172C179.091 43.172 180.294 42.8933 181.233 42.336C182.201 41.7787 182.831 40.9867 183.125 39.96H188.097C187.627 42.336 186.454 44.1987 184.577 45.548C182.729 46.8973 180.382 47.572 177.537 47.572ZM197.673 47H192.305V25.264H197.277L197.717 28.08C198.392 26.9947 199.345 26.144 200.577 25.528C201.838 24.912 203.202 24.604 204.669 24.604C207.397 24.604 209.45 25.4107 210.829 27.024C212.237 28.6373 212.941 30.8373 212.941 33.624V47H207.573V34.9C207.573 33.0813 207.162 31.732 206.341 30.852C205.52 29.9427 204.405 29.488 202.997 29.488C201.325 29.488 200.02 30.016 199.081 31.072C198.142 32.128 197.673 33.536 197.673 35.296V47ZM216.059 25.264H229.787V29.752H216.059V25.264ZM225.607 47H220.239V18.488H225.607V47ZM231.677 36.088C231.677 33.8293 232.176 31.8493 233.173 30.148C234.171 28.4173 235.549 27.068 237.309 26.1C239.069 25.132 241.064 24.648 243.293 24.648C245.552 24.648 247.547 25.132 249.277 26.1C251.037 27.068 252.416 28.4173 253.413 30.148C254.411 31.8493 254.909 33.8293 254.909 36.088C254.909 38.3467 254.411 40.3413 253.413 42.072C252.416 43.7733 251.037 45.108 249.277 46.076C247.547 47.044 245.552 47.528 243.293 47.528C241.064 47.528 239.069 47.044 237.309 46.076C235.549 45.108 234.171 43.7733 233.173 42.072C232.176 40.3413 231.677 38.3467 231.677 36.088ZM237.045 36.088C237.045 37.408 237.309 38.5667 237.837 39.564C238.395 40.5613 239.128 41.3387 240.037 41.896C240.976 42.4533 242.061 42.732 243.293 42.732C244.525 42.732 245.611 42.4533 246.549 41.896C247.488 41.3387 248.221 40.5613 248.749 39.564C249.277 38.5667 249.541 37.408 249.541 36.088C249.541 34.7387 249.277 33.58 248.749 32.612C248.221 31.6147 247.488 30.8373 246.549 30.28C245.611 29.7227 244.525 29.444 243.293 29.444C242.061 29.444 240.976 29.7227 240.037 30.28C239.128 30.8373 238.395 31.6147 237.837 32.612C237.309 33.58 237.045 34.7387 237.045 36.088ZM272.804 25.176V30.148H270.824C268.859 30.148 267.319 30.676 266.204 31.732C265.09 32.7587 264.532 34.328 264.532 36.44V47H259.164V25.308H264.224L264.664 29.796H264.136C264.43 28.3587 265.119 27.1853 266.204 26.276C267.29 25.3667 268.698 24.912 270.428 24.912C270.81 24.912 271.191 24.9267 271.572 24.956C271.954 24.9853 272.364 25.0587 272.804 25.176ZM280.294 25.264L287.378 45.328L284.474 50.828L274.618 25.264H280.294ZM275.19 57.076V52.632H278.402C279.106 52.632 279.722 52.544 280.25 52.368C280.778 52.2213 281.248 51.928 281.658 51.488C282.098 51.048 282.465 50.4027 282.758 49.552L291.778 25.264H297.322L286.674 51.84C285.882 53.8347 284.885 55.2867 283.682 56.196C282.48 57.1053 280.984 57.56 279.194 57.56C278.432 57.56 277.713 57.516 277.038 57.428C276.393 57.3693 275.777 57.252 275.19 57.076Z" fill="#F4F4F5"/>
<path d="M113.436 66.836V99H107.804V66.836H113.436ZM120.564 85.316H111.72V80.564H120.256C121.811 80.564 122.999 80.1827 123.82 79.42C124.641 78.628 125.052 77.5133 125.052 76.076C125.052 74.6973 124.627 73.6413 123.776 72.908C122.925 72.1747 121.693 71.808 120.08 71.808H111.544V66.836H120.564C123.761 66.836 126.269 67.6133 128.088 69.168C129.907 70.7227 130.816 72.8493 130.816 75.548C130.816 77.484 130.347 79.112 129.408 80.432C128.469 81.7227 127.076 82.6613 125.228 83.248V82.632C127.223 83.1013 128.733 83.9813 129.76 85.272C130.787 86.5627 131.3 88.2347 131.3 90.288C131.3 92.1067 130.889 93.676 130.068 94.996C129.247 96.2867 128.044 97.284 126.46 97.988C124.905 98.6627 123.028 99 120.828 99H111.544V94.028H120.564C122.177 94.028 123.409 93.6467 124.26 92.884C125.111 92.1213 125.536 91.0213 125.536 89.584C125.536 88.2347 125.096 87.1933 124.216 86.46C123.365 85.6973 122.148 85.316 120.564 85.316ZM150.412 77.264H155.78V99H150.808L150.412 96.096C149.767 97.1227 148.799 97.9587 147.508 98.604C146.217 99.2493 144.839 99.572 143.372 99.572C140.879 99.572 138.928 98.78 137.52 97.196C136.112 95.612 135.408 93.5 135.408 90.86V77.264H140.776V88.968C140.776 91.0213 141.172 92.5027 141.964 93.412C142.756 94.3213 143.9 94.776 145.396 94.776C147.097 94.776 148.359 94.2773 149.18 93.28C150.001 92.2533 150.412 90.7133 150.412 88.66V77.264ZM169.827 99.572C167.715 99.572 165.896 99.1027 164.371 98.164C162.875 97.196 161.701 95.8613 160.851 94.16C160.029 92.4587 159.619 90.4787 159.619 88.22C159.619 85.9613 160.029 83.9667 160.851 82.236C161.701 80.476 162.919 79.0973 164.503 78.1C166.087 77.1027 167.964 76.604 170.135 76.604C171.66 76.604 173.053 76.912 174.315 77.528C175.576 78.1147 176.544 78.9507 177.219 80.036V66.264H182.543V99H177.615L177.263 95.612C176.617 96.844 175.62 97.812 174.271 98.516C172.951 99.22 171.469 99.572 169.827 99.572ZM171.015 94.644C172.276 94.644 173.361 94.38 174.271 93.852C175.18 93.2947 175.884 92.5173 176.383 91.52C176.911 90.4933 177.175 89.3347 177.175 88.044C177.175 86.724 176.911 85.58 176.383 84.612C175.884 83.6147 175.18 82.8373 174.271 82.28C173.361 81.6933 172.276 81.4 171.015 81.4C169.783 81.4 168.712 81.6933 167.803 82.28C166.893 82.8373 166.189 83.6147 165.691 84.612C165.221 85.6093 164.987 86.7533 164.987 88.044C164.987 89.3347 165.221 90.4787 165.691 91.476C166.189 92.4733 166.893 93.2507 167.803 93.808C168.712 94.3653 169.783 94.644 171.015 94.644ZM197.069 99.572C194.957 99.572 193.138 99.1027 191.613 98.164C190.117 97.196 188.944 95.8613 188.093 94.16C187.272 92.4587 186.861 90.4787 186.861 88.22C186.861 85.9613 187.272 83.9667 188.093 82.236C188.944 80.476 190.161 79.0973 191.745 78.1C193.329 77.1027 195.206 76.604 197.377 76.604C198.902 76.604 200.296 76.912 201.557 77.528C202.818 78.1147 203.786 78.9507 204.461 80.036V66.264H209.785V99H204.857L204.505 95.612C203.86 96.844 202.862 97.812 201.513 98.516C200.193 99.22 198.712 99.572 197.069 99.572ZM198.257 94.644C199.518 94.644 200.604 94.38 201.513 93.852C202.422 93.2947 203.126 92.5173 203.625 91.52C204.153 90.4933 204.417 89.3347 204.417 88.044C204.417 86.724 204.153 85.58 203.625 84.612C203.126 83.6147 202.422 82.8373 201.513 82.28C200.604 81.6933 199.518 81.4 198.257 81.4C197.025 81.4 195.954 81.6933 195.045 82.28C194.136 82.8373 193.432 83.6147 192.933 84.612C192.464 85.6093 192.229 86.7533 192.229 88.044C192.229 89.3347 192.464 90.4787 192.933 91.476C193.432 92.4733 194.136 93.2507 195.045 93.808C195.954 94.3653 197.025 94.644 198.257 94.644ZM215.379 99V77.264H220.747V99H215.379ZM218.019 72.908C217.11 72.908 216.333 72.6 215.687 71.984C215.071 71.3387 214.763 70.5613 214.763 69.652C214.763 68.7427 215.071 67.98 215.687 67.364C216.333 66.748 217.11 66.44 218.019 66.44C218.929 66.44 219.691 66.748 220.307 67.364C220.953 67.98 221.275 68.7427 221.275 69.652C221.275 70.5613 220.953 71.3387 220.307 71.984C219.691 72.6 218.929 72.908 218.019 72.908ZM236.017 99.572C233.876 99.572 231.969 99.088 230.297 98.12C228.655 97.1227 227.364 95.7733 226.425 94.072C225.487 92.3413 225.017 90.3613 225.017 88.132C225.017 85.8733 225.472 83.8787 226.381 82.148C227.291 80.4173 228.567 79.068 230.209 78.1C231.852 77.1027 233.729 76.604 235.841 76.604C238.041 76.604 239.933 77.0733 241.517 78.012C243.101 78.9213 244.319 80.1973 245.169 81.84C246.049 83.4827 246.489 85.448 246.489 87.736V89.364L227.833 89.408L227.921 85.976H241.165C241.165 84.48 240.681 83.2773 239.713 82.368C238.775 81.4587 237.499 81.004 235.885 81.004C234.624 81.004 233.553 81.268 232.673 81.796C231.823 82.324 231.177 83.116 230.737 84.172C230.297 85.228 230.077 86.5187 230.077 88.044C230.077 90.3907 230.576 92.1653 231.573 93.368C232.6 94.5707 234.111 95.172 236.105 95.172C237.572 95.172 238.775 94.8933 239.713 94.336C240.681 93.7787 241.312 92.9867 241.605 91.96H246.577C246.108 94.336 244.935 96.1987 243.057 97.548C241.209 98.8973 238.863 99.572 236.017 99.572Z" fill="#F4F4F5"/>
<defs>
<linearGradient id="paint0_linear_50_7787" x1="0" y1="56" x2="88.7329" y2="56" gradientUnits="userSpaceOnUse">
<stop offset="0.6" stop-color="#7828C8"/>
<stop offset="1" stop-color="#006FEE"/>
</linearGradient>
</defs>
</svg>
